<svg id="bell" xmlns="http://www.w3.org/2000/svg" viewBox="0 0 435.04 502.38"><defs><style>.cls-1{fill:#fff;}</style></defs><polygon class="cls-1" points="402.81 371.26 402.81 338.57 381.12 338.57 381.12 98.28 347.89 98.28 347.89 65.74 315.7 65.74 315.7 33.44 282.59 33.44 282.59 0 152.45 0 152.45 0 152.45 33.44 119.33 33.44 119.33 65.74 87.15 65.74 87.15 98.28 53.91 98.28 53.91 338.57 32.23 338.57 32.23 371.26 0 371.26 0 404.26 0 404.26 435.04 404.26 435.04 371.26 402.81 371.26"/><polygon class="cls-1" points="130.14 436.33 305.21 436.33 305.21 469.79 272.36 469.79 272.36 502.38 162.36 502.38 162.36 469.35 130.14 469.35 130.14 436.33"/></svg>