<?xml version="1.0" standalone="no"?>
<!DOCTYPE svg PUBLIC "-//W3C//DTD SVG 20010904//EN"
 "http://www.w3.org/TR/2001/REC-SVG-20010904/DTD/svg10.dtd">
<svg version="1.0" xmlns="http://www.w3.org/2000/svg"
 width="512.000000pt" height="512.000000pt" viewBox="0 0 512.000000 512.000000"
 preserveAspectRatio="xMidYMid meet">

<g transform="translate(0.000000,512.000000) scale(0.100000,-0.100000)"
fill="#000000" stroke="none">
<path d="M800 3920 l0 -80 -80 0 -80 0 0 -80 0 -80 -80 0 -80 0 0 -240 0 -240
80 0 80 0 0 -80 0 -80 80 0 80 0 0 -80 0 -80 240 0 240 0 0 80 0 80 80 0 80 0
0 80 0 80 80 0 80 0 0 240 0 240 -80 0 -80 0 0 80 0 80 -80 0 -80 0 0 80 0 80
-240 0 -240 0 0 -80z m320 -160 l0 -80 -160 0 -160 0 0 -160 0 -160 -80 0 -80
0 0 160 0 160 80 0 80 0 0 80 0 80 160 0 160 0 0 -80z"/>
<path d="M3680 3920 l0 -80 -80 0 -80 0 0 -80 0 -80 -80 0 -80 0 0 -240 0
-240 80 0 80 0 0 -80 0 -80 80 0 80 0 0 -80 0 -80 240 0 240 0 0 80 0 80 80 0
80 0 0 80 0 80 80 0 80 0 0 240 0 240 -80 0 -80 0 0 80 0 80 -80 0 -80 0 0 80
0 80 -240 0 -240 0 0 -80z m320 -160 l0 -80 -160 0 -160 0 0 -160 0 -160 -80
0 -80 0 0 160 0 160 80 0 80 0 0 80 0 80 160 0 160 0 0 -80z"/>
<path d="M2240 3600 l0 -80 -80 0 -80 0 0 -80 0 -80 -80 0 -80 0 0 -240 0
-240 80 0 80 0 0 -80 0 -80 80 0 80 0 0 -80 0 -80 240 0 240 0 0 80 0 80 80 0
80 0 0 80 0 80 80 0 80 0 0 240 0 240 -80 0 -80 0 0 80 0 80 -80 0 -80 0 0 80
0 80 -240 0 -240 0 0 -80z m320 -160 l0 -80 -160 0 -160 0 0 -160 0 -160 -80
0 -80 0 0 160 0 160 80 0 80 0 0 80 0 80 160 0 160 0 0 -80z"/>
<path d="M480 2640 l0 -80 -80 0 -80 0 0 -80 0 -80 -80 0 -80 0 0 -240 0 -240
80 0 80 0 0 -80 0 -80 560 0 560 0 0 160 0 160 80 0 80 0 0 -240 0 -240 80 0
80 0 0 -80 0 -80 720 0 720 0 0 80 0 80 80 0 80 0 0 240 0 240 80 0 80 0 0
-160 0 -160 560 0 560 0 0 80 0 80 80 0 80 0 0 240 0 240 -80 0 -80 0 0 80 0
80 -80 0 -80 0 0 80 0 80 -560 0 -560 0 0 -80 0 -80 -80 0 -80 0 0 -80 0 -80
80 0 80 0 0 -160 0 -160 -80 0 -80 0 0 80 0 80 -80 0 -80 0 0 80 0 80 -560 0
-560 0 0 -80 0 -80 -80 0 -80 0 0 160 0 160 -80 0 -80 0 0 80 0 80 -560 0
-560 0 0 -80z m480 -160 l0 -80 -240 0 -240 0 0 -80 0 -80 -80 0 -80 0 0 80 0
80 80 0 80 0 0 80 0 80 240 0 240 0 0 -80z m2880 0 l0 -80 -240 0 -240 0 0 80
0 80 240 0 240 0 0 -80z m-2080 -320 l0 -80 80 0 80 0 0 80 0 80 240 0 240 0
0 -80 0 -80 -240 0 -240 0 0 -80 0 -80 -80 0 -80 0 0 80 0 80 -80 0 -80 0 0
80 0 80 80 0 80 0 0 -80z"/>
</g>
</svg>
