<?xml version="1.0" standalone="no"?>
<!DOCTYPE svg PUBLIC "-//W3C//DTD SVG 20010904//EN"
 "http://www.w3.org/TR/2001/REC-SVG-20010904/DTD/svg10.dtd">
<svg version="1.0" xmlns="http://www.w3.org/2000/svg"
 width="512.000000pt" height="512.000000pt" viewBox="0 0 512.000000 512.000000"
 preserveAspectRatio="xMidYMid meet">

<g transform="translate(0.000000,512.000000) scale(0.100000,-0.100000)"
fill="#000000" stroke="none">
<path d="M2780 4565 l0 -165 168 -2 167 -3 3 -167 2 -168 165 0 165 0 0 -1165
0 -1165 110 0 110 0 2 -503 3 -502 723 -3 722 -2 0 505 0 505 -165 0 -165 0 0
165 0 165 -335 0 -335 0 0 165 0 165 165 0 165 0 0 170 0 170 170 0 170 0 0
665 0 665 -170 0 -170 0 0 170 0 170 -165 0 -165 0 0 165 0 165 -670 0 -670 0
0 -165z"/>
<path d="M1000 4230 l0 -170 -165 0 -165 0 0 -165 0 -165 -170 0 -170 0 2
-667 3 -668 168 -3 167 -2 0 -165 0 -165 165 0 165 0 0 -165 0 -165 -332 -2
-333 -3 -3 -167 -2 -168 -165 0 -165 0 0 -500 0 -500 1670 0 1670 0 0 500 0
500 -165 0 -165 0 -2 167 -3 168 -332 3 -333 2 0 165 0 165 165 0 165 0 0 165
0 165 168 2 167 3 0 665 0 665 -167 3 -168 2 0 165 0 165 -165 0 -165 0 -2
168 -3 167 -667 3 -668 2 0 -170z"/>
</g>
</svg>
